PathFileType	4	(X/Y/Z)	 2.8Hzhigh3min.trc
DataRate	CameraRate	NumFrames	NumMarkers	Units	OrigDataRate	OrigDataStartFrame	OrigNumFrames
200	200	11	35	m	200	126	1000
Frame#	Time	C7			LSH			RSH			MAN			RASI			LASI			HIPR			HIPL			RPSI			LPSI			COX			RTHI1			RTHI2			RTHI3			RTHI4			RSHA1			RSHA2			RSHA3			RSHA4			RHEEL			RMET5			RMET1			RTOE			LTHI1			LTHI2			LTHI3			LTHI4			LSHA1			LSHA2			LSHA3			LSHA4			LHEEL			LMET5			LMET1			LTOE			
		X1	Y1	Z1	X2	Y2	Z2	X3	Y3	Z3	X4	Y4	Z4	X5	Y5	Z5	X6	Y6	Z6	X7	Y7	Z7	X8	Y8	Z8	X9	Y9	Z9	X10	Y10	Z10	X11	Y11	Z11	X12	Y12	Z12	X13	Y13	Z13	X14	Y14	Z14	X15	Y15	Z15	X16	Y16	Z16	X17	Y17	Z17	X18	Y18	Z18	X19	Y19	Z19	X20	Y20	Z20	X21	Y21	Z21	X22	Y22	Z22	X23	Y23	Z23	X24	Y24	Z24	X25	Y25	Z25	X26	Y26	Z26	X27	Y27	Z27	X28	Y28	Z28	X29	Y29	Z29	X30	Y30	Z30	X31	Y31	Z31	X32	Y32	Z32	X33	Y33	Z33	X34	Y34	Z34	X35	Y35	Z35	
126	0.6300	-0.303974	1.601707	-0.505948	-0.273924	1.578958	-0.727696	-0.239315	1.575670	-0.301095	-0.155725	1.531347	-0.514086	-0.158842	1.093647	-0.388955	-0.153069	1.083733	-0.608238	-0.221045	1.139929	-0.343470	-0.224256	1.130162	-0.668171	-0.342348	1.117173	-0.446242	-0.346973	1.108801	-0.557348	-0.350301	1.122890	-0.497803	-0.236304	0.839273	-0.306206	-0.219964	0.783507	-0.293549	-0.156446	0.800055	-0.290635	-0.165767	0.859364	-0.304448	-0.307516	0.412739	-0.280874	-0.324236	0.373435	-0.287548	-0.266004	0.356158	-0.289880	-0.253908	0.394331	-0.287174	-0.442627	0.085283	-0.359540	-0.267206	0.026528	-0.280429	-0.221563	0.041034	-0.370868	-0.192103	0.029942	-0.369350	-0.218520	0.822884	-0.704074	-0.199359	0.764357	-0.709422	-0.136641	0.778883	-0.704746	-0.146760	0.838214	-0.699244	-0.288244	0.372399	-0.701269	-0.307877	0.337030	-0.698585	-0.251282	0.314418	-0.682709	-0.238373	0.356430	-0.688110	-0.453785	0.076012	-0.620174	-0.281221	0.026163	-0.705146	-0.224913	0.037534	-0.620543	-0.196421	0.028796	-0.627067	
127	0.6350	-0.303749	1.601262	-0.505841	-0.273466	1.578559	-0.727630	-0.239023	1.574965	-0.300914	-0.155545	1.530831	-0.513896	-0.158993	1.092950	-0.388828	-0.153199	1.082973	-0.608335	-0.221439	1.139222	-0.343318	-0.224628	1.129303	-0.668238	-0.342464	1.116646	-0.446187	-0.347065	1.108379	-0.557274	-0.350365	1.122395	-0.497689	-0.236399	0.838685	-0.306501	-0.220038	0.782857	-0.293871	-0.156535	0.799364	-0.290907	-0.165835	0.858699	-0.304606	-0.307800	0.412168	-0.281375	-0.324464	0.372731	-0.288282	-0.266208	0.355575	-0.290510	-0.254138	0.393791	-0.287644	-0.442714	0.084662	-0.360149	-0.267291	0.026599	-0.280588	-0.221528	0.041010	-0.370944	-0.192052	0.029943	-0.369323	-0.218509	0.822530	-0.704007	-0.199300	0.764027	-0.709336	-0.136599	0.778603	-0.704622	-0.146764	0.837918	-0.699134	-0.288183	0.372146	-0.700921	-0.307839	0.336811	-0.698222	-0.251236	0.314121	-0.682444	-0.238297	0.356148	-0.687863	-0.453747	0.075801	-0.619654	-0.281296	0.026208	-0.704991	-0.224830	0.037522	-0.620494	-0.196337	0.028794	-0.627082	
128	0.6400	-0.303609	1.601226	-0.505731	-0.273064	1.578645	-0.727573	-0.238739	1.574757	-0.300728	-0.155428	1.530885	-0.513732	-0.159000	1.092723	-0.388756	-0.153212	1.082818	-0.608405	-0.221578	1.139053	-0.343173	-0.224748	1.129070	-0.668339	-0.342465	1.116565	-0.446078	-0.347061	1.108440	-0.557204	-0.350373	1.122362	-0.497594	-0.236490	0.838503	-0.306756	-0.220155	0.782636	-0.294179	-0.156648	0.799080	-0.291178	-0.165898	0.858438	-0.304785	-0.308143	0.411912	-0.281839	-0.324745	0.372390	-0.288902	-0.266464	0.355357	-0.291055	-0.254442	0.393615	-0.288069	-0.442694	0.084362	-0.360596	-0.267342	0.026653	-0.280722	-0.221493	0.040983	-0.371010	-0.192017	0.029941	-0.369307	-0.218459	0.822628	-0.703978	-0.199219	0.764132	-0.709261	-0.136535	0.778739	-0.704473	-0.146735	0.838044	-0.699010	-0.288129	0.372301	-0.700666	-0.307790	0.336977	-0.697966	-0.251176	0.314246	-0.682277	-0.238227	0.356293	-0.687693	-0.453614	0.075958	-0.619337	-0.281327	0.026250	-0.704853	-0.224736	0.037507	-0.620462	-0.196255	0.028793	-0.627089	
129	0.6450	-0.303557	1.601594	-0.505617	-0.272729	1.579242	-0.727524	-0.238464	1.575026	-0.300517	-0.155352	1.531455	-0.513594	-0.158857	1.092953	-0.388738	-0.153092	1.083248	-0.608452	-0.221464	1.139384	-0.343043	-0.224596	1.129452	-0.668497	-0.342344	1.116930	-0.445932	-0.346960	1.108962	-0.557121	-0.350296	1.122775	-0.497505	-0.236587	0.838753	-0.306976	-0.220321	0.782847	-0.294480	-0.156789	0.799214	-0.291450	-0.165963	0.858583	-0.304978	-0.308539	0.411982	-0.282265	-0.325083	0.372435	-0.289378	-0.266775	0.355515	-0.291501	-0.254816	0.393795	-0.288470	-0.442567	0.084398	-0.360837	-0.267361	0.026688	-0.280829	-0.221454	0.040951	-0.371065	-0.191995	0.029940	-0.369299	-0.218373	0.823169	-0.703983	-0.199119	0.764670	-0.709206	-0.136448	0.779298	-0.704323	-0.146674	0.838590	-0.698887	-0.288104	0.372846	-0.700515	-0.307755	0.337511	-0.697825	-0.251124	0.314773	-0.682211	-0.238182	0.356840	-0.687612	-0.453395	0.076465	-0.619235	-0.281316	0.026289	-0.704733	-0.224642	0.037490	-0.620449	-0.196179	0.028791	-0.627091	
130	0.6500	-0.303584	1.602369	-0.505501	-0.272447	1.580303	-0.727478	-0.238208	1.575760	-0.300279	-0.155308	1.532497	-0.513479	-0.158568	1.093625	-0.388764	-0.152830	1.084238	-0.608480	-0.221124	1.140160	-0.342932	-0.224177	1.130430	-0.668723	-0.342099	1.117735	-0.445765	-0.346751	1.109928	-0.557036	-0.350104	1.123611	-0.497406	-0.236694	0.839437	-0.307159	-0.220536	0.783502	-0.294754	-0.156962	0.799756	-0.291718	-0.166035	0.859144	-0.305174	-0.308998	0.412427	-0.282561	-0.325483	0.372858	-0.289721	-0.267147	0.356060	-0.291837	-0.255253	0.394359	-0.288769	-0.442391	0.084788	-0.360848	-0.267350	0.026711	-0.280912	-0.221412	0.040916	-0.371110	-0.191986	0.029938	-0.369299	-0.218265	0.824143	-0.704022	-0.199014	0.765636	-0.709177	-0.136357	0.780258	-0.704190	-0.146589	0.839551	-0.698785	-0.288149	0.373754	-0.700472	-0.307768	0.338398	-0.697804	-0.251112	0.315677	-0.682244	-0.238205	0.357760	-0.687620	-0.453100	0.077302	-0.619335	-0.281270	0.026323	-0.704635	-0.224555	0.037468	-0.620454	-0.196118	0.028788	-0.627088	
131	0.6550	-0.303674	1.603546	-0.505387	-0.272225	1.581827	-0.727428	-0.237984	1.576956	-0.300034	-0.155271	1.533971	-0.513385	-0.158151	1.094739	-0.388831	-0.152425	1.085740	-0.608491	-0.220595	1.141343	-0.342841	-0.223512	1.131969	-0.669020	-0.341734	1.118974	-0.445602	-0.346428	1.111336	-0.556955	-0.349820	1.124882	-0.497342	-0.236811	0.840557	-0.307281	-0.220799	0.784601	-0.294997	-0.157176	0.800691	-0.291955	-0.166115	0.860122	-0.305361	-0.309533	0.413220	-0.282811	-0.325944	0.373674	-0.289913	-0.267580	0.356979	-0.292069	-0.255773	0.395294	-0.289034	-0.442143	0.085536	-0.360640	-0.267311	0.026723	-0.280974	-0.221367	0.040877	-0.371142	-0.191992	0.029935	-0.369302	-0.218154	0.825544	-0.704084	-0.198936	0.767015	-0.709186	-0.136283	0.781602	-0.704095	-0.146492	0.840890	-0.698706	-0.288291	0.375010	-0.700543	-0.307862	0.339607	-0.697896	-0.251173	0.316938	-0.682379	-0.238325	0.359040	-0.687722	-0.452741	0.078437	-0.619626	-0.281191	0.026350	-0.704558	-0.224481	0.037444	-0.620480	-0.196078	0.028785	-0.627083	
132	0.6600	-0.303807	1.605122	-0.505283	-0.272082	1.583745	-0.727368	-0.237811	1.578615	-0.299823	-0.155268	1.535890	-0.513297	-0.157599	1.096257	-0.388925	-0.151883	1.087712	-0.608487	-0.219913	1.142928	-0.342769	-0.222626	1.134037	-0.669388	-0.341252	1.120635	-0.445451	-0.345992	1.113171	-0.556888	-0.349422	1.126548	-0.497303	-0.236957	0.842109	-0.307392	-0.221119	0.786125	-0.295217	-0.157431	0.802040	-0.292168	-0.166213	0.861499	-0.305535	-0.310163	0.414364	-0.283017	-0.326511	0.374879	-0.289931	-0.268092	0.358282	-0.292186	-0.256386	0.396599	-0.289256	-0.441774	0.086625	-0.360321	-0.267243	0.026725	-0.281018	-0.221326	0.040839	-0.371157	-0.192015	0.029932	-0.369307	-0.218065	0.827352	-0.704168	-0.198919	0.768796	-0.709230	-0.136258	0.783304	-0.704047	-0.146401	0.842597	-0.698669	-0.288564	0.376590	-0.700721	-0.308068	0.341132	-0.698096	-0.251335	0.318550	-0.682618	-0.238568	0.360675	-0.687924	-0.452322	0.079859	-0.620083	-0.281084	0.026370	-0.704505	-0.224426	0.037416	-0.620528	-0.196060	0.028780	-0.627080	
133	0.6650	-0.303971	1.607087	-0.505185	-0.272004	1.586085	-0.727299	-0.237695	1.580713	-0.299657	-0.155309	1.538242	-0.513216	-0.156959	1.098187	-0.389040	-0.151214	1.090106	-0.608470	-0.219117	1.144922	-0.342702	-0.221536	1.136606	-0.669825	-0.340666	1.122698	-0.445313	-0.345436	1.115391	-0.556851	-0.348874	1.128554	-0.497234	-0.237146	0.844118	-0.307521	-0.221488	0.788070	-0.295404	-0.157739	0.803774	-0.292353	-0.166331	0.863263	-0.305683	-0.310913	0.415881	-0.283148	-0.327172	0.376432	-0.289846	-0.268692	0.359957	-0.292186	-0.257094	0.398269	-0.289403	-0.441313	0.088040	-0.359896	-0.267149	0.026720	-0.281048	-0.221287	0.040804	-0.371156	-0.192053	0.029930	-0.369310	-0.218020	0.829548	-0.704270	-0.198994	0.770958	-0.709315	-0.136311	0.785334	-0.704054	-0.146338	0.844638	-0.698680	-0.288991	0.378475	-0.700996	-0.308408	0.342962	-0.698392	-0.251613	0.320502	-0.682959	-0.238955	0.362648	-0.688222	-0.451836	0.081537	-0.620699	-0.280950	0.026383	-0.704474	-0.224390	0.037388	-0.620597	-0.196068	0.028773	-0.627080	
134	0.6700	-0.304160	1.609421	-0.505094	-0.271996	1.588787	-0.727225	-0.237640	1.583232	-0.299537	-0.155371	1.540977	-0.513144	-0.156248	1.100512	-0.389164	-0.150430	1.092888	-0.608436	-0.218229	1.147325	-0.342647	-0.220447	1.139570	-0.670101	-0.339984	1.125136	-0.445199	-0.344767	1.117993	-0.556859	-0.348237	1.130937	-0.497219	-0.237367	0.846529	-0.307634	-0.221908	0.790406	-0.295562	-0.158093	0.805886	-0.292499	-0.166467	0.865406	-0.305803	-0.311789	0.417768	-0.283178	-0.327928	0.378289	-0.289721	-0.269381	0.361987	-0.292074	-0.257906	0.400317	-0.289388	-0.440794	0.089765	-0.359360	-0.267027	0.026710	-0.281073	-0.221253	0.040776	-0.371138	-0.192106	0.029929	-0.369312	-0.218042	0.832119	-0.704391	-0.199186	0.773474	-0.709442	-0.136469	0.787655	-0.704122	-0.146320	0.846987	-0.698749	-0.289584	0.380664	-0.701355	-0.308895	0.345078	-0.698772	-0.252022	0.322779	-0.683408	-0.239498	0.364953	-0.688616	-0.451281	0.083465	-0.621449	-0.280793	0.026391	-0.704466	-0.224372	0.037360	-0.620689	-0.196101	0.028766	-0.627086	
135	0.6750	-0.304380	1.612098	-0.505007	-0.272068	1.591841	-0.727143	-0.237640	1.586143	-0.299448	-0.155446	1.544062	-0.513080	-0.155469	1.103212	-0.389292	-0.149545	1.096014	-0.608390	-0.217271	1.150136	-0.342599	-0.219399	1.142884	-0.670182	-0.339213	1.127931	-0.445115	-0.343993	1.120948	-0.556903	-0.347503	1.133665	-0.497242	-0.237618	0.849315	-0.307722	-0.222378	0.793105	-0.295699	-0.158492	0.808349	-0.292604	-0.166622	0.867899	-0.305895	-0.312791	0.419997	-0.283164	-0.328793	0.380467	-0.289549	-0.270164	0.364352	-0.291863	-0.258826	0.402718	-0.289250	-0.440156	0.091788	-0.358796	-0.266877	0.026701	-0.281099	-0.221223	0.040756	-0.371100	-0.192174	0.029929	-0.369308	-0.218141	0.835030	-0.704528	-0.199509	0.776315	-0.709615	-0.136739	0.790255	-0.704262	-0.146362	0.849609	-0.698874	-0.290342	0.383143	-0.701785	-0.309532	0.347467	-0.699225	-0.252562	0.325370	-0.683959	-0.240189	0.367589	-0.689105	-0.450652	0.085609	-0.622309	-0.280610	0.026395	-0.704474	-0.224366	0.037336	-0.620806	-0.196156	0.028758	-0.627100	
136	0.6800	-0.304633	1.615095	-0.504921	-0.272227	1.595224	-0.727050	-0.237693	1.589414	-0.299378	-0.155536	1.547463	-0.513028	-0.154633	1.106257	-0.389413	-0.148570	1.099459	-0.608331	-0.216245	1.153350	-0.342556	-0.218433	1.146490	-0.670036	-0.338363	1.131051	-0.445058	-0.343127	1.124211	-0.556984	-0.346641	1.136668	-0.497248	-0.237919	0.852462	-0.307846	-0.222893	0.796152	-0.295809	-0.158939	0.811133	-0.292662	-0.166801	0.870712	-0.305957	-0.313915	0.422544	-0.283100	-0.329765	0.382944	-0.289353	-0.271050	0.367044	-0.291562	-0.259835	0.405438	-0.288949	-0.439424	0.094068	-0.358158	-0.266702	0.026692	-0.281132	-0.221196	0.040747	-0.371044	-0.192256	0.029931	-0.369298	-0.218319	0.838250	-0.704691	-0.199957	0.779453	-0.709826	-0.137125	0.793103	-0.704478	-0.146471	0.852491	-0.699064	-0.291268	0.385878	-0.702268	-0.310314	0.350130	-0.699739	-0.253230	0.328266	-0.684607	-0.241030	0.370526	-0.689680	-0.449934	0.087970	-0.623264	-0.280402	0.026401	-0.704494	-0.224367	0.037317	-0.620946	-0.196232	0.028752	-0.627123	
